<?xml version="1.0" encoding="UTF-8"?>
<svg xmlns="http://www.w3.org/2000/svg" xmlns:xlink="http://www.w3.org/1999/xlink" width="32px" height="39px" viewBox="0 0 32 38" version="1.1">
<g id="surface1">
<path style="fill:none;stroke-width:1;stroke-linecap:butt;stroke-linejoin:miter;stroke:rgb(0%,0%,0%);stroke-opacity:1;stroke-miterlimit:4;" d="M -39.512527 77.557796 C -27.936298 46.449775 8.221555 31.685483 38.787803 43.273736 C 52.882934 48.612916 64.780726 58.999424 72.140921 72.132777 " transform="matrix(0.218659,0,0,0.227534,12.733531,6.72017)"/>
<path style="fill-rule:nonzero;fill:rgb(83.137255%,0%,0%);fill-opacity:0.992157;stroke-width:2.011;stroke-linecap:round;stroke-linejoin:round;stroke:rgb(0%,0%,0%);stroke-opacity:1;stroke-miterlimit:4;" d="M 449.941236 197.87036 C 449.941236 220.497783 442.553672 236.122964 427.409166 252.766275 C 416.102089 265.17084 400.937062 276.827391 382.796489 277.741631 C 377.645715 277.990969 372.474421 278.925986 367.138958 278.593535 C 345.078872 277.284511 324.763071 269.160248 311.650145 256.464788 C 295.253858 240.569491 284.33668 221.32891 284.33668 197.87036 C 284.33668 152.470067 321.68492 120.430135 367.138958 119.765234 C 396.319835 119.34967 425.931653 135.203411 439.803857 154.236211 C 448.299555 165.892762 449.941236 182.307514 449.941236 197.87036 Z M 449.941236 197.87036 " transform="matrix(0.190354,0,0,0.187998,-53.894066,-14.578103)"/>
<path style="fill-rule:evenodd;fill:rgb(100%,100%,100%);fill-opacity:1;stroke-width:1.105;stroke-linecap:butt;stroke-linejoin:miter;stroke:rgb(0%,0%,0%);stroke-opacity:1;stroke-miterlimit:4;" d="M 284.33668 209.339908 C 348.321191 215.531801 400.177785 215.801917 450.454261 206.742637 " transform="matrix(0.190354,0,0,0.187998,-53.894066,-14.578103)"/>
<path style="fill:none;stroke-width:1.105;stroke-linecap:butt;stroke-linejoin:miter;stroke:rgb(0%,0%,0%);stroke-opacity:1;stroke-miterlimit:4;" d="M 300.856094 193.423832 L 300.856094 210.752823 " transform="matrix(0.190354,0,0,0.187998,-53.894066,-14.578103)"/>
<path style="fill:none;stroke-width:1.105;stroke-linecap:butt;stroke-linejoin:miter;stroke:rgb(0%,0%,0%);stroke-opacity:1;stroke-miterlimit:4;" d="M 332.950954 191.491463 L 332.950954 211.895622 " transform="matrix(0.190354,0,0,0.187998,-53.894066,-14.578103)"/>
<path style="fill-rule:evenodd;fill:rgb(100%,100%,100%);fill-opacity:1;stroke-width:1.105;stroke-linecap:butt;stroke-linejoin:miter;stroke:rgb(0%,0%,0%);stroke-opacity:1;stroke-miterlimit:4;" d="M 350.209124 203.376574 L 350.044956 212.976087 " transform="matrix(0.190354,0,0,0.187998,-53.894066,-14.578103)"/>
<path style="fill:none;stroke-width:1.105;stroke-linecap:butt;stroke-linejoin:miter;stroke:rgb(0%,0%,0%);stroke-opacity:1;stroke-miterlimit:4;" d="M 383.617329 202.358444 L 383.617329 213.287759 " transform="matrix(0.190354,0,0,0.187998,-53.894066,-14.578103)"/>
<path style="fill:none;stroke-width:1.105;stroke-linecap:butt;stroke-linejoin:miter;stroke:rgb(0%,0%,0%);stroke-opacity:1;stroke-miterlimit:4;" d="M 367.959798 191.055122 L 367.959798 213.474763 " transform="matrix(0.190354,0,0,0.187998,-53.894066,-14.578103)"/>
<path style="fill:none;stroke-width:1.105;stroke-linecap:butt;stroke-linejoin:miter;stroke:rgb(0%,0%,0%);stroke-opacity:1;stroke-miterlimit:4;" d="M 397.345886 190.265551 L 397.345886 212.394298 " transform="matrix(0.190354,0,0,0.187998,-53.894066,-14.578103)"/>
<path style="fill:none;stroke-width:1.105;stroke-linecap:butt;stroke-linejoin:miter;stroke:rgb(0%,0%,0%);stroke-opacity:1;stroke-miterlimit:4;" d="M 414.870829 201.236423 L 414.870829 211.334612 " transform="matrix(0.190354,0,0,0.187998,-53.894066,-14.578103)"/>
<path style="fill-rule:evenodd;fill:rgb(100%,100%,100%);fill-opacity:1;stroke-width:1.105;stroke-linecap:butt;stroke-linejoin:miter;stroke:rgb(0%,0%,0%);stroke-opacity:1;stroke-miterlimit:4;" d="M 428.147922 188.395516 L 428.660948 209.485355 " transform="matrix(0.190354,0,0,0.187998,-53.894066,-14.578103)"/>
<path style="fill-rule:evenodd;fill:rgb(0%,50.196078%,0%);fill-opacity:1;stroke-width:2.033;stroke-linecap:butt;stroke-linejoin:miter;stroke:rgb(0%,0%,0%);stroke-opacity:1;stroke-miterlimit:4;" d="M 345.632939 132.169799 C 358.417528 138.694143 373.110572 139.109706 382.550237 133.437267 C 401.429567 123.110518 412.67508 107.859344 422.689334 94.436649 C 411.505383 101.168775 400.608726 115.630378 383.371077 116.357614 C 394.39086 105.677637 390.225095 89.242108 388.419246 78.56213 C 383.288993 88.556428 378.199783 104.306278 371.427849 114.279798 C 359.853999 111.86953 356.714285 102.062236 355.072604 96.369019 C 348.546922 102.041458 350.393813 112.347428 353.820822 118.040646 C 335.721291 114.508358 324.024315 94.374315 313.886935 83.486556 C 319.037709 98.529948 322.280029 119.973015 345.632939 132.169799 Z M 345.632939 132.169799 " transform="matrix(0.190354,0,0,0.187998,-53.894066,-14.578103)"/>
<path style="fill-rule:evenodd;fill:rgb(100%,100%,100%);fill-opacity:1;stroke-width:2.011;stroke-linecap:butt;stroke-linejoin:miter;stroke:rgb(0%,0%,0%);stroke-opacity:1;stroke-miterlimit:4;" d="M 368.18553 219.251093 L 354.1902 236.933312 C 362.788504 239.468249 371.366286 239.738365 379.96459 236.933312 L 368.165009 219.251093 Z M 368.18553 219.251093 " transform="matrix(0.190354,0,0,0.187998,-53.894066,-14.578103)"/>
<path style="fill-rule:nonzero;fill:rgb(100%,100%,100%);fill-opacity:0.992157;stroke-width:0.484;stroke-linecap:round;stroke-linejoin:round;stroke:rgb(0%,0%,0%);stroke-opacity:1;stroke-miterlimit:4;" d="M 366.995311 183.803542 L 366.995311 186.255365 L 353.348839 186.255365 C 353.328318 185.63202 353.430923 185.050231 353.656654 184.489221 C 354.005511 183.554204 354.539057 182.619186 355.318856 181.704947 C 356.078133 180.811486 357.186268 179.751799 358.622739 178.567444 C 360.88005 176.697409 362.378084 175.242937 363.178403 174.162472 C 363.958201 173.06123 364.348101 172.0431 364.348101 171.066526 C 364.348101 170.069174 363.999243 169.196491 363.281008 168.510811 C 362.562773 167.804354 361.618806 167.471903 360.46963 167.471903 C 359.25889 167.471903 358.273881 167.825132 357.555646 168.573146 C 356.81689 169.300382 356.447511 170.33929 356.42699 171.648314 L 353.841343 171.378198 C 354.005511 169.404272 354.682705 167.929023 355.852402 166.890114 C 357.001579 165.871984 358.561176 165.35253 360.531193 165.35253 C 362.50121 165.35253 364.081327 165.892762 365.230504 167.014783 C 366.379681 168.116026 366.954269 169.487385 366.954269 171.12886 C 366.954269 171.959987 366.790101 172.791113 366.461765 173.580684 C 366.112907 174.391032 365.55884 175.242937 364.758521 176.136398 C 363.978722 177.009081 362.685899 178.234993 360.859529 179.793355 C 359.340974 181.081602 358.376486 181.954285 357.945545 182.432183 C 357.514604 182.868524 357.145226 183.325644 356.878453 183.803542 L 366.995311 183.803542 M 369.724605 180.811486 L 372.371816 180.582926 C 372.577026 181.89195 373.028488 182.868524 373.746723 183.533425 C 374.464959 184.177549 375.326841 184.509999 376.352892 184.509999 C 377.563631 184.509999 378.610203 184.05288 379.451564 183.117862 C 380.292926 182.182845 380.703346 180.956933 380.703346 179.419348 C 380.703346 177.964877 380.313447 176.822078 379.492606 175.970173 C 378.671766 175.139046 377.625194 174.702705 376.31185 174.702705 C 375.491009 174.702705 374.752253 174.889708 374.095581 175.284493 C 373.438908 175.637722 372.925883 176.136398 372.556505 176.718187 L 370.176068 176.406514 L 372.166606 165.726537 L 382.427111 165.726537 L 382.427111 168.157582 L 374.198186 168.157582 L 373.090051 173.767687 C 374.321312 172.895004 375.614135 172.458663 376.989043 172.458663 C 378.774371 172.458663 380.292926 173.082008 381.544707 174.349476 C 382.775968 175.596166 383.391598 177.216863 383.391598 179.190789 C 383.391598 181.081602 382.858052 182.702299 381.770439 184.094436 C 380.436573 185.777467 378.630724 186.608594 376.352892 186.608594 C 374.464959 186.608594 372.946404 186.08914 371.756185 185.029453 C 370.565967 183.969767 369.888773 182.556852 369.724605 180.811486 " transform="matrix(0.190354,0,0,0.187998,-53.894066,-14.578103)"/>
<path style="fill-rule:evenodd;fill:rgb(100%,100%,100%);fill-opacity:1;stroke-width:1.105;stroke-linecap:butt;stroke-linejoin:miter;stroke:rgb(0%,0%,0%);stroke-opacity:1;stroke-miterlimit:4;" d="M 317.252381 201.568874 L 317.108734 211.168386 " transform="matrix(0.190354,0,0,0.187998,-53.894066,-14.578103)"/>
<path style="fill:none;stroke-width:1.105;stroke-linecap:butt;stroke-linejoin:miter;stroke:rgb(0%,0%,0%);stroke-opacity:1;stroke-miterlimit:4;" d="M 442.451067 197.267793 L 442.451067 207.365982 " transform="matrix(0.190354,0,0,0.187998,-53.894066,-14.578103)"/>
</g>
</svg>
